<?xml version="1.0" encoding="utf-8"?>
<svg viewBox="0 0 58 58" width="58" height="58" style="enable-background:new 0 0 58 58;" xmlns="http://www.w3.org/2000/svg">
  <defs>
    <style type="text/css">
	.st0{fill:#fff;}
</style>
  </defs>
  <g>
    <path class="st0" d="M45.1,17.3C42.1,0.4,29,0,29,0S15.8,0.4,12.9,17.3S4,35.6,4,35.6s4.4,16,19,22.4c0,0-7.5-12.4-7.5-21.6 c0-5,1.3-13.3,13.5-13.3s13.5,8.3,13.5,13.3C42.5,45.6,35,58,35,58c14.6-6.5,19-22.5,19-22.5S48,34.1,45.1,17.3z" style="fill: rgb(0, 0, 0);"/>
    <path class="st0" d="M29,26.8c0,0-8.2-0.2-10.3,5.7C21,39.2,23.9,47,29,47c5.1,0,8-7.8,10.3-14.5C37.2,26.6,29,26.8,29,26.8z" style="fill: rgb(0, 0, 0);"/>
  </g>
</svg>